# xmcd
#
# Track frame offsets:
#	150
#	15751
#	36144
#	51222
#	69150
#	81214
#	95317
#	109712
#	126077
#	139978
#	156498
#	169723
#	187128
#	204860
#
# Disc length: 2963
#
# Revision: 2
# Processed by: cddbd v1.5.1PL0 Copyright (c) Steve Scherf et al.
# Submitted via: audiograbber 1.82.02
# Normalized: r1:DSETVAR1
#
DISCID=b30b910e
DTITLE=Various Artist - Hot Hits Country Vol. 90
DYEAR=1999
DGENRE=Country
TTITLE0=George Jones - Choices
TTITLE1=Alan Jackson - Little Man
TTITLE2=Alabama w/ 'N Sync - God Must Have Spent A Little More Time On You
TTITLE3=Vince Gill w/ Patty Loveless - My Kind Of Woman/My Kind Of Man
TTITLE4=Lee Ann Womack - (Now You See Me) Now You Don't
TTITLE5=Shane Minor - Slave To The Habit
TTITLE6=Aaron Tippin - Her
TTITLE7=Chad Brock - Lightning Does The Work
TTITLE8=Shana Petrone - This Time
TTITLE9=Sherrie Austin - Never Been Kissed
TTITLE10=The Warren Brothers - She Wants To Rock
TTITLE11=Billy Ray Cyrus - Give My Heart To You
TTITLE12=Terri Clark - Unsung Hero
TTITLE13=Kenny Chesney - You Had Me From Hello
EXTD=
EXTT0=
EXTT1=
EXTT2=
EXTT3=
EXTT4=
EXTT5=
EXTT6=
EXTT7=
EXTT8=
EXTT9=
EXTT10=
EXTT11=
EXTT12=
EXTT13=
PLAYORDER=
